<svg width="16" height="16" fill="none" xmlns="http://www.w3.org/2000/svg"><path d="M4.5 7a1.5 1.5 0 1 0 0-3 1.5 1.5 0 0 0 0 3Z" fill="currentColor"/><path fill-rule="evenodd" clip-rule="evenodd" d="M3.25 1A3.25 3.25 0 0 0 0 4.25v7.5A3.25 3.25 0 0 0 3.25 15h9.5A3.25 3.25 0 0 0 16 11.75v-7.5A3.25 3.25 0 0 0 12.75 1h-9.5ZM14.5 8.44V4.25a1.75 1.75 0 0 0-1.75-1.75h-9.5A1.75 1.75 0 0 0 1.5 4.25v7.5c0 .206.036.404.101.588L5.97 7.97a.75.75 0 0 1 1.06 0l.97.97 2.97-2.97a.75.75 0 0 1 1.06 0l2.47 2.47ZM9.06 10l.97.97a.75.75 0 1 1-1.06 1.06L6.5 9.56 2.662 13.4c.184.065.382.101.588.101h9.5a1.75 1.75 0 0 0 1.75-1.75v-1.19l-3-3L9.06 10Z" fill="currentColor"/></svg>