<svg width="16" height="16" fill="none" xmlns="http://www.w3.org/2000/svg"><path d="M3 8.25a.75.75 0 0 1 .75-.75h4.5a.75.75 0 0 1 0 1.5h-4.5A.75.75 0 0 1 3 8.25ZM3.75 10.5a.75.75 0 0 0 0 1.5h4.5a.75.75 0 0 0 0-1.5h-4.5ZM3 4.75A.75.75 0 0 1 3.75 4h1.5a.75.75 0 0 1 .75.75v.5a.75.75 0 0 1-.75.75h-1.5A.75.75 0 0 1 3 5.25v-.5ZM7.75 4a.75.75 0 0 0-.75.75v.5c0 .414.336.75.75.75h.5A.75.75 0 0 0 9 5.25v-.5A.75.75 0 0 0 8.25 4h-.5Z" fill="currentColor"/><path fill-rule="evenodd" clip-rule="evenodd" d="M0 3a2 2 0 0 1 2-2h8a2 2 0 0 1 2 2h2a2 2 0 0 1 2 2v7.25A2.75 2.75 0 0 1 13.25 15h-10A3.25 3.25 0 0 1 0 11.75V3Zm10.8 10.5H3.25a1.75 1.75 0 0 1-1.75-1.75V3a.5.5 0 0 1 .5-.5h8a.5.5 0 0 1 .5.5v9.25c0 .45.108.875.3 1.25Zm1.2-9v7.75a1.25 1.25 0 1 0 2.5 0V5a.5.5 0 0 0-.5-.5h-2Z" fill="currentColor"/></svg>